<?xml version="1.0" encoding="UTF-8"?>
<!DOCTYPE svg PUBLIC "-//W3C//DTD SVG 1.1//EN" "http://www.w3.org/Graphics/SVG/1.1/DTD/svg11.dtd">
<!-- Creator: CorelDRAW 2020 (64-Bit) -->
<svg xmlns="http://www.w3.org/2000/svg" xml:space="preserve" width="621px" height="96px" version="1.1" style="shape-rendering:geometricPrecision; text-rendering:geometricPrecision; image-rendering:optimizeQuality; fill-rule:evenodd; clip-rule:evenodd"
viewBox="0 0 42.2 6.53"
 xmlns:xlink="http://www.w3.org/1999/xlink"
 xmlns:xodm="http://www.corel.com/coreldraw/odm/2003">
 <defs>
  <style type="text/css">
   <![CDATA[
    .fil1 {fill:#1066CF}
    .fil0 {fill:white;fill-rule:nonzero}
   ]]>
  </style>
 </defs>
 <g id="Layer_x0020_1">
  <metadata id="CorelCorpID_0Corel-Layer"/>
  <polygon class="fil0" points="11.03,3.91 10.52,4.45 10.52,5.64 9.19,5.64 9.19,0.89 10.52,0.89 10.52,2.86 12.36,0.89 13.84,0.89 11.9,2.99 13.95,5.64 12.38,5.64 "/>
  <polygon id="1" class="fil0" points="18.12,4.6 18.12,5.64 14.3,5.64 14.3,0.89 18.03,0.89 18.03,1.92 15.63,1.92 15.63,2.73 17.74,2.73 17.74,3.73 15.63,3.73 15.63,4.6 "/>
  <polygon id="2" class="fil0" points="18.86,0.89 20.21,0.89 20.21,5.64 18.86,5.64 "/>
  <polygon id="3" class="fil0" points="22.18,1.95 20.72,1.95 20.72,0.89 24.98,0.89 24.98,1.95 23.52,1.95 23.52,5.64 22.18,5.64 "/>
  <path id="4" class="fil0" d="M27.81 5.73c-0.5,0 -0.96,-0.1 -1.36,-0.31 -0.4,-0.22 -0.71,-0.51 -0.94,-0.89 -0.23,-0.37 -0.34,-0.8 -0.34,-1.27 0,-0.47 0.11,-0.89 0.34,-1.27 0.23,-0.37 0.54,-0.67 0.94,-0.88 0.4,-0.21 0.86,-0.32 1.36,-0.32 0.5,0 0.95,0.11 1.35,0.32 0.4,0.21 0.72,0.51 0.95,0.88 0.23,0.38 0.34,0.8 0.34,1.27 0,0.47 -0.11,0.9 -0.34,1.27 -0.23,0.38 -0.55,0.67 -0.95,0.89 -0.4,0.21 -0.85,0.31 -1.35,0.31zm0 -1.11c0.24,0 0.45,-0.06 0.65,-0.17 0.19,-0.11 0.35,-0.27 0.46,-0.48 0.11,-0.2 0.17,-0.44 0.17,-0.71 0,-0.26 -0.06,-0.5 -0.17,-0.71 -0.11,-0.2 -0.27,-0.36 -0.46,-0.48 -0.2,-0.11 -0.41,-0.17 -0.65,-0.17 -0.24,0 -0.46,0.06 -0.65,0.17 -0.2,0.12 -0.35,0.28 -0.47,0.48 -0.11,0.21 -0.17,0.45 -0.17,0.71 0,0.27 0.06,0.51 0.17,0.71 0.12,0.21 0.27,0.37 0.47,0.48 0.19,0.11 0.41,0.17 0.65,0.17z"/>
  <polygon id="5" class="fil0" points="32.1,1.95 30.64,1.95 30.64,0.89 34.9,0.89 34.9,1.95 33.44,1.95 33.44,5.64 32.1,5.64 "/>
  <path id="6" class="fil0" d="M37.73 5.73c-0.5,0 -0.95,-0.1 -1.35,-0.31 -0.41,-0.22 -0.72,-0.51 -0.95,-0.89 -0.23,-0.37 -0.34,-0.8 -0.34,-1.27 0,-0.47 0.11,-0.89 0.34,-1.27 0.23,-0.37 0.54,-0.67 0.95,-0.88 0.4,-0.21 0.85,-0.32 1.35,-0.32 0.5,0 0.95,0.11 1.36,0.32 0.4,0.21 0.71,0.51 0.94,0.88 0.23,0.38 0.34,0.8 0.34,1.27 0,0.47 -0.11,0.9 -0.34,1.27 -0.23,0.38 -0.54,0.67 -0.94,0.89 -0.41,0.21 -0.86,0.31 -1.36,0.31zm0 -1.11c0.24,0 0.46,-0.06 0.65,-0.17 0.2,-0.11 0.35,-0.27 0.46,-0.48 0.12,-0.2 0.17,-0.44 0.17,-0.71 0,-0.26 -0.05,-0.5 -0.17,-0.71 -0.11,-0.2 -0.26,-0.36 -0.46,-0.48 -0.19,-0.11 -0.41,-0.17 -0.65,-0.17 -0.24,0 -0.46,0.06 -0.65,0.17 -0.2,0.12 -0.35,0.28 -0.46,0.48 -0.12,0.21 -0.17,0.45 -0.17,0.71 0,0.27 0.05,0.51 0.17,0.71 0.11,0.21 0.26,0.37 0.46,0.48 0.19,0.11 0.41,0.17 0.65,0.17z"/>
  <path id="7" class="fil0" d="M41.42 5.7c-0.21,0 -0.4,-0.07 -0.55,-0.22 -0.14,-0.14 -0.22,-0.32 -0.22,-0.55 0,-0.22 0.07,-0.41 0.22,-0.55 0.15,-0.14 0.33,-0.21 0.55,-0.21 0.23,0 0.42,0.07 0.56,0.21 0.15,0.14 0.22,0.33 0.22,0.55 0,0.23 -0.07,0.41 -0.22,0.55 -0.15,0.15 -0.33,0.22 -0.56,0.22z"/>
  <g id="_2930480674064">
   <path class="fil1" d="M4.66 6.49l-1.13 -1.58 -1.13 1.58c-0.02,0.02 -0.05,0.04 -0.08,0.04l-2.14 0c-0.03,0 -0.06,-0.02 -0.08,-0.06 -0.02,-0.03 -0.01,-0.06 0.01,-0.09l2.24 -3.12 1.18 -1.64 1.13 -1.58c0.02,-0.03 0.05,-0.04 0.08,-0.04l2.14 0c0.03,0 0.06,0.02 0.08,0.05 0.02,0.03 0.01,0.07 -0.01,0.1l-2.24 3.11 2.24 3.12c0.02,0.03 0.03,0.06 0.01,0.09 -0.02,0.04 -0.05,0.06 -0.08,0.06l-2.14 0c-0.03,0 -0.06,-0.02 -0.08,-0.04z"/>
   <path class="fil1" d="M0.16 0.16l2.34 2.34c0.02,0.02 0.03,0.06 0.02,0.1 -0.02,0.03 -0.05,0.05 -0.09,0.05l-2.34 0c-0.05,0 -0.09,-0.04 -0.09,-0.09l0 -2.34c0,-0.03 0.02,-0.07 0.06,-0.08 0.03,-0.02 0.07,-0.01 0.1,0.02z"/>
  </g>
 </g>
</svg>
