<?xml version="1.0" encoding="UTF-8"?>
<!DOCTYPE svg PUBLIC "-//W3C//DTD SVG 1.1//EN" "http://www.w3.org/Graphics/SVG/1.1/DTD/svg11.dtd">
<!-- Creator: CorelDRAW 2020 (64-Bit) -->
<svg xmlns="http://www.w3.org/2000/svg" xml:space="preserve" width="195px" height="182px" version="1.1" style="shape-rendering:geometricPrecision; text-rendering:geometricPrecision; image-rendering:optimizeQuality; fill-rule:evenodd; clip-rule:evenodd"
viewBox="0 0 4.19 3.92"
 xmlns:xlink="http://www.w3.org/1999/xlink"
 xmlns:xodm="http://www.corel.com/coreldraw/odm/2003">
 <defs>
  <style type="text/css">
   <![CDATA[
    .fil0 {fill:#1066CF}
   ]]>
  </style>
 </defs>
 <g id="Layer_x0020_1">
  <metadata id="CorelCorpID_0Corel-Layer"/>
  <g id="_2930369667024">
   <path class="fil0" d="M2.8 3.9l-0.68 -0.95 -0.68 0.95c-0.01,0.01 -0.03,0.02 -0.05,0.02l-1.28 0c-0.02,0 -0.04,-0.01 -0.05,-0.03 -0.01,-0.02 -0.01,-0.04 0,-0.06l1.35 -1.87 0.71 -0.99 0.68 -0.95c0.01,-0.01 0.03,-0.02 0.05,-0.02l1.28 0c0.03,0 0.04,0.01 0.05,0.03 0.01,0.02 0.01,0.04 0,0.06l-1.35 1.87 1.35 1.87c0.01,0.02 0.01,0.04 0,0.06 -0.01,0.02 -0.02,0.03 -0.05,0.03l-1.28 0c-0.02,0 -0.04,-0.01 -0.05,-0.02z"/>
   <path class="fil0" d="M0.1 0.1l1.4 1.4c0.02,0.02 0.02,0.04 0.01,0.06 -0.01,0.02 -0.03,0.04 -0.05,0.04l-1.4 0c-0.03,0 -0.06,-0.03 -0.06,-0.06l0 -1.4c0,-0.03 0.01,-0.05 0.03,-0.06 0.03,-0.01 0.05,0 0.07,0.02z"/>
  </g>
 </g>
</svg>
