<svg width="16" height="16" viewBox="0 0 16 16" fill="none" xmlns="http://www.w3.org/2000/svg">
<path d="M12.3133 11.22L12.5733 13.3266C12.6399 13.88 12.0466 14.2666 11.5733 13.98L9.2666 12.6066C9.1066 12.5133 9.0666 12.3133 9.15326 12.1533C9.4866 11.54 9.6666 10.8466 9.6666 10.1533C9.6666 7.71331 7.57326 5.72665 4.99993 5.72665C4.47326 5.72665 3.95993 5.80665 3.47993 5.96665C3.23326 6.04665 2.99326 5.81998 3.05326 5.56665C3.65993 3.13998 5.99326 1.33331 8.77993 1.33331C12.0333 1.33331 14.6666 3.79331 14.6666 6.82665C14.6666 8.62665 13.7399 10.22 12.3133 11.22Z" fill="#A9A9A9"/>
<path d="M8.66683 10.1534C8.66683 10.9467 8.3735 11.68 7.88016 12.26C7.22016 13.06 6.1735 13.5734 5.00016 13.5734L3.26016 14.6067C2.96683 14.7867 2.5935 14.54 2.6335 14.2L2.80016 12.8867C1.90683 12.2667 1.3335 11.2734 1.3335 10.1534C1.3335 8.98002 1.96016 7.94668 2.92016 7.33335C3.5135 6.94668 4.22683 6.72668 5.00016 6.72668C7.02683 6.72668 8.66683 8.26002 8.66683 10.1534Z" fill="#A9A9A9"/>
</svg>
