<svg width="16" height="16" viewBox="0 0 16 16" fill="none" xmlns="http://www.w3.org/2000/svg">
<path d="M14.6665 7.31336V8.6867C14.6665 9.05336 14.3732 9.35336 13.9998 9.3667H12.6932C11.9732 9.3667 11.3132 8.84003 11.2532 8.12003C11.2132 7.70003 11.3732 7.3067 11.6532 7.03336C11.8998 6.78003 12.2398 6.63336 12.6132 6.63336H13.9998C14.3732 6.6467 14.6665 6.9467 14.6665 7.31336Z" fill="#A9A9A9"/>
<path d="M13.6468 10.3666H12.6935C11.4268 10.3666 10.3602 9.41331 10.2535 8.19998C10.1935 7.50665 10.4468 6.81331 10.9535 6.31998C11.3802 5.87998 11.9735 5.63331 12.6135 5.63331H13.6468C13.8402 5.63331 14.0002 5.47331 13.9802 5.27998C13.8335 3.65998 12.7602 2.55331 11.1668 2.36665C11.0068 2.33998 10.8402 2.33331 10.6668 2.33331H4.66683C4.48016 2.33331 4.30016 2.34665 4.12683 2.37331C2.42683 2.58665 1.3335 3.85331 1.3335 5.66665V10.3333C1.3335 12.1733 2.82683 13.6666 4.66683 13.6666H10.6668C12.5335 13.6666 13.8202 12.5 13.9802 10.72C14.0002 10.5266 13.8402 10.3666 13.6468 10.3666ZM8.66683 6.49998H4.66683C4.3935 6.49998 4.16683 6.27331 4.16683 5.99998C4.16683 5.72665 4.3935 5.49998 4.66683 5.49998H8.66683C8.94016 5.49998 9.16683 5.72665 9.16683 5.99998C9.16683 6.27331 8.94016 6.49998 8.66683 6.49998Z" fill="#A9A9A9"/>
</svg>
