<svg width="18" height="18" viewBox="0 0 18 18" fill="none" xmlns="http://www.w3.org/2000/svg">
<path d="M16.5 17.0625H3.75C2.1975 17.0625 0.9375 15.8025 0.9375 14.25V1.5C0.9375 1.1925 1.1925 0.9375 1.5 0.9375C1.8075 0.9375 2.0625 1.1925 2.0625 1.5V14.25C2.0625 15.18 2.82 15.9375 3.75 15.9375H16.5C16.8075 15.9375 17.0625 16.1925 17.0625 16.5C17.0625 16.8075 16.8075 17.0625 16.5 17.0625Z" fill="#A9A9A9"/>
<path d="M3.74987 13.3125C3.62237 13.3125 3.48737 13.2675 3.38237 13.1775C3.14987 12.975 3.11987 12.6225 3.32237 12.3825L6.76487 8.36249C7.13987 7.92749 7.67987 7.66499 8.24987 7.64249C8.81987 7.62749 9.38237 7.83749 9.78737 8.24249L10.4999 8.95499C10.6874 9.14249 10.9274 9.23249 11.1974 9.23249C11.4599 9.22499 11.6999 9.10499 11.8724 8.90249L15.3149 4.88249C15.5174 4.64999 15.8699 4.61999 16.1099 4.82249C16.3424 5.02499 16.3724 5.37749 16.1699 5.61749L12.7274 9.63749C12.3524 10.0725 11.8124 10.335 11.2424 10.3575C10.6649 10.3725 10.1099 10.1625 9.70487 9.75749L8.99987 9.04499C8.81237 8.85749 8.56487 8.75999 8.30237 8.76749C8.03987 8.77499 7.79987 8.89499 7.62737 9.09749L4.18487 13.1175C4.06487 13.245 3.90737 13.3125 3.74987 13.3125Z" fill="#A9A9A9"/>
</svg>
