<svg width="24" height="24" viewBox="0 0 24 24" fill="none" xmlns="http://www.w3.org/2000/svg">
<circle cx="12" cy="12" r="12" fill="#0277FA" fill-opacity="0.12"/>
<path d="M16.3133 15.22L16.5733 17.3266C16.6399 17.88 16.0466 18.2666 15.5733 17.98L13.2666 16.6066C13.1066 16.5133 13.0666 16.3133 13.1533 16.1533C13.4866 15.54 13.6666 14.8466 13.6666 14.1533C13.6666 11.7133 11.5733 9.72665 8.99993 9.72665C8.47326 9.72665 7.95993 9.80665 7.47993 9.96665C7.23326 10.0466 6.99326 9.81998 7.05326 9.56665C7.65993 7.13998 9.99326 5.33331 12.7799 5.33331C16.0333 5.33331 18.6666 7.79331 18.6666 10.8266C18.6666 12.6266 17.7399 14.22 16.3133 15.22Z" fill="#0277FA"/>
<path d="M12.6668 14.1534C12.6668 14.9467 12.3735 15.68 11.8802 16.26C11.2202 17.06 10.1735 17.5734 9.00016 17.5734L7.26016 18.6067C6.96683 18.7867 6.5935 18.54 6.6335 18.2L6.80016 16.8867C5.90683 16.2667 5.3335 15.2734 5.3335 14.1534C5.3335 12.98 5.96016 11.9467 6.92016 11.3334C7.5135 10.9467 8.22683 10.7267 9.00016 10.7267C11.0268 10.7267 12.6668 12.26 12.6668 14.1534Z" fill="#0277FA"/>
</svg>
