<svg width="40" height="40" viewBox="0 0 40 40" fill="none" xmlns="http://www.w3.org/2000/svg">
<circle cx="20" cy="20" r="20" fill="#0277FA" fill-opacity="0.12"/>
<path d="M24.6553 8.88879H15.3442C11.2998 8.88879 8.88867 11.2999 8.88867 15.3443V24.6555C8.88867 28.6999 11.2998 31.111 15.3442 31.111H24.6553C28.6998 31.111 31.1109 28.6999 31.1109 24.6555V15.3443C31.1109 11.2999 28.6998 8.88879 24.6553 8.88879ZM17.7442 23.2221L15.2442 25.7221C15.0776 25.8888 14.8664 25.9666 14.6553 25.9666C14.4442 25.9666 14.222 25.8888 14.0664 25.7221L13.2331 24.8888C12.8998 24.5666 12.8998 24.0332 13.2331 23.711C13.5553 23.3888 14.0776 23.3888 14.4109 23.711L14.6553 23.9555L16.5664 22.0444C16.8887 21.7221 17.4109 21.7221 17.7442 22.0444C18.0665 22.3666 18.0665 22.8999 17.7442 23.2221ZM17.7442 15.4443L15.2442 17.9443C15.0776 18.111 14.8664 18.1888 14.6553 18.1888C14.4442 18.1888 14.222 18.111 14.0664 17.9443L13.2331 17.111C12.8998 16.7888 12.8998 16.2555 13.2331 15.9332C13.5553 15.611 14.0776 15.611 14.4109 15.9332L14.6553 16.1777L16.5664 14.2666C16.8887 13.9443 17.4109 13.9443 17.7442 14.2666C18.0665 14.5888 18.0665 15.1221 17.7442 15.4443ZM26.1776 25.1332H20.3442C19.8887 25.1332 19.5109 24.7555 19.5109 24.2999C19.5109 23.8444 19.8887 23.4666 20.3442 23.4666H26.1776C26.6442 23.4666 27.0109 23.8444 27.0109 24.2999C27.0109 24.7555 26.6442 25.1332 26.1776 25.1332ZM26.1776 17.3555H20.3442C19.8887 17.3555 19.5109 16.9777 19.5109 16.5221C19.5109 16.0666 19.8887 15.6888 20.3442 15.6888H26.1776C26.6442 15.6888 27.0109 16.0666 27.0109 16.5221C27.0109 16.9777 26.6442 17.3555 26.1776 17.3555Z" fill="#0277FA"/>
</svg>
