<svg width="24" height="24" viewBox="0 0 24 24" fill="none" xmlns="http://www.w3.org/2000/svg">
<circle cx="12" cy="12" r="12" fill="#0277FA" fill-opacity="0.12"/>
<path d="M13.5667 5.33331H10.4333C9.74001 5.33331 9.17334 5.89331 9.17334 6.58665V7.21331C9.17334 7.90665 9.73334 8.46665 10.4267 8.46665H13.5667C14.26 8.46665 14.82 7.90665 14.82 7.21331V6.58665C14.8267 5.89331 14.26 5.33331 13.5667 5.33331Z" fill="#0277FA"/>
<path d="M15.4934 7.21332C15.4934 8.27332 14.6267 9.13999 13.5667 9.13999H10.4334C9.37336 9.13999 8.50669 8.27332 8.50669 7.21332C8.50669 6.83999 8.10669 6.60665 7.77336 6.77999C6.83336 7.27999 6.19336 8.27332 6.19336 9.41332V15.6867C6.19336 17.3267 7.53336 18.6667 9.17336 18.6667H14.8267C16.4667 18.6667 17.8067 17.3267 17.8067 15.6867V9.41332C17.8067 8.27332 17.1667 7.27999 16.2267 6.77999C15.8934 6.60665 15.4934 6.83999 15.4934 7.21332ZM14.2267 12.4867L11.56 15.1533C11.46 15.2533 11.3334 15.3 11.2067 15.3C11.08 15.3 10.9534 15.2533 10.8534 15.1533L9.85336 14.1533C9.66003 13.96 9.66003 13.64 9.85336 13.4467C10.0467 13.2533 10.3667 13.2533 10.56 13.4467L11.2067 14.0933L13.52 11.78C13.7134 11.5867 14.0334 11.5867 14.2267 11.78C14.42 11.9733 14.42 12.2933 14.2267 12.4867Z" fill="#0277FA"/>
</svg>
