<svg width="40" height="40" viewBox="0 0 40 40" fill="none" xmlns="http://www.w3.org/2000/svg">
<circle cx="20" cy="20" r="20" fill="#0277FA" fill-opacity="0.12"/>
<path d="M23.8887 21.2778H21.4776C19.4998 21.2778 17.8887 19.6778 17.8887 17.6889V15.2778C17.8887 14.8222 17.522 14.4445 17.0553 14.4445H13.5331C10.9664 14.4445 8.88867 16.1111 8.88867 19.0889V26.4667C8.88867 29.4445 10.9664 31.1111 13.5331 31.1111H20.0776C22.6442 31.1111 24.722 29.4445 24.722 26.4667V22.1111C24.722 21.6445 24.3442 21.2778 23.8887 21.2778Z" fill="#0277FA"/>
<path d="M26.4664 8.88879H24.2775H23.0664H19.9219C17.4108 8.88879 15.3775 10.4888 15.2886 13.3443C15.3552 13.3443 15.4108 13.3332 15.4775 13.3332H18.6219H19.833H22.0219C24.5886 13.3332 26.6664 14.9999 26.6664 17.9777V20.1666V23.1777V25.3666C26.6664 25.4332 26.6552 25.4888 26.6552 25.5444C29.133 25.4666 31.1108 23.8221 31.1108 20.9221V18.7332V15.7221V13.5332C31.1108 10.5555 29.033 8.88879 26.4664 8.88879Z" fill="#0277FA"/>
<path d="M19.9778 14.6111C19.6333 14.2667 19.0444 14.5 19.0444 14.9778V17.8889C19.0444 19.1111 20.0778 20.1111 21.3444 20.1111C22.1333 20.1222 23.2333 20.1222 24.1778 20.1222C24.6555 20.1222 24.9 19.5667 24.5667 19.2333C23.3555 18.0222 21.2 15.8556 19.9778 14.6111Z" fill="#0277FA"/>
</svg>
