<svg width="24" height="24" viewBox="0 0 24 24" fill="none" xmlns="http://www.w3.org/2000/svg">
<circle cx="12" cy="12" r="12" fill="#0277FA" fill-opacity="0.12"/>
<path d="M18.6665 11.3134V12.6867C18.6665 13.0534 18.3732 13.3534 17.9998 13.3667H16.6932C15.9732 13.3667 15.3132 12.84 15.2532 12.12C15.2132 11.7 15.3732 11.3067 15.6532 11.0334C15.8998 10.78 16.2398 10.6334 16.6132 10.6334H17.9998C18.3732 10.6467 18.6665 10.9467 18.6665 11.3134Z" fill="#0277FA"/>
<path d="M17.6468 14.3666H16.6935C15.4268 14.3666 14.3602 13.4133 14.2535 12.2C14.1935 11.5066 14.4468 10.8133 14.9535 10.32C15.3802 9.87998 15.9735 9.63331 16.6135 9.63331H17.6468C17.8402 9.63331 18.0002 9.47331 17.9802 9.27998C17.8335 7.65998 16.7602 6.55331 15.1668 6.36665C15.0068 6.33998 14.8402 6.33331 14.6668 6.33331H8.66683C8.48016 6.33331 8.30016 6.34665 8.12683 6.37331C6.42683 6.58665 5.3335 7.85331 5.3335 9.66665V14.3333C5.3335 16.1733 6.82683 17.6666 8.66683 17.6666H14.6668C16.5335 17.6666 17.8202 16.5 17.9802 14.72C18.0002 14.5266 17.8402 14.3666 17.6468 14.3666ZM12.6668 10.5H8.66683C8.3935 10.5 8.16683 10.2733 8.16683 9.99998C8.16683 9.72665 8.3935 9.49998 8.66683 9.49998H12.6668C12.9402 9.49998 13.1668 9.72665 13.1668 9.99998C13.1668 10.2733 12.9402 10.5 12.6668 10.5Z" fill="#0277FA"/>
</svg>
