<svg width="40" height="40" viewBox="0 0 40 40" fill="none" xmlns="http://www.w3.org/2000/svg">
<circle cx="20" cy="20" r="20" fill="#0277FA" fill-opacity="0.12"/>
<path d="M26.1445 15.2999C26.0667 15.2888 25.9889 15.2888 25.9112 15.2999C24.1889 15.2443 22.8223 13.8332 22.8223 12.0999C22.8223 10.3332 24.2556 8.88879 26.0334 8.88879C27.8 8.88879 29.2445 10.3221 29.2445 12.0999C29.2334 13.8332 27.8667 15.2443 26.1445 15.2999Z" fill="#0277FA"/>
<path d="M29.7664 23C28.522 23.8333 26.7775 24.1444 25.1664 23.9333C25.5886 23.0222 25.8108 22.0111 25.822 20.9444C25.822 19.8333 25.5775 18.7778 25.1108 17.8556C26.7553 17.6333 28.4997 17.9444 29.7553 18.7778C31.5108 19.9333 31.5108 21.8333 29.7664 23Z" fill="#0277FA"/>
<path d="M13.8223 15.2999C13.9001 15.2888 13.9778 15.2888 14.0556 15.2999C15.7778 15.2443 17.1445 13.8332 17.1445 12.0999C17.1445 10.3221 15.7112 8.88879 13.9334 8.88879C12.1667 8.88879 10.7334 10.3221 10.7334 12.0999C10.7334 13.8332 12.1001 15.2443 13.8223 15.2999Z" fill="#0277FA"/>
<path d="M13.9444 20.9444C13.9444 22.0222 14.1777 23.0444 14.6 23.9666C13.0333 24.1333 11.4 23.8 10.2 23.0111C8.44441 21.8444 8.44441 19.9444 10.2 18.7777C11.3889 17.9777 13.0666 17.6555 14.6444 17.8333C14.1889 18.7666 13.9444 19.8222 13.9444 20.9444Z" fill="#0277FA"/>
<path d="M20.1332 24.3C20.0443 24.2888 19.9443 24.2888 19.8443 24.3C17.7998 24.2333 16.1665 22.5555 16.1665 20.4888C16.1776 18.3777 17.8776 16.6666 19.9998 16.6666C22.1109 16.6666 23.8221 18.3777 23.8221 20.4888C23.8109 22.5555 22.1887 24.2333 20.1332 24.3Z" fill="#0277FA"/>
<path d="M16.522 26.5999C14.8442 27.7222 14.8442 29.5666 16.522 30.6777C18.4331 31.9555 21.5665 31.9555 23.4776 30.6777C25.1553 29.5555 25.1553 27.711 23.4776 26.5999C21.5776 25.3222 18.4442 25.3222 16.522 26.5999Z" fill="#0277FA"/>
</svg>
